<svg
  xmlns="http://www.w3.org/2000/svg"
  viewBox="0 0 80 80"
  shape-rendering="crispEdges"
  role="img"
  aria-label="Pixel art doodle of a gentleman holding a cup of coffee"
>
  <defs>
    <style>
      .h{fill:#1b1714}
      .s{fill:#bc8f70}
      .g{fill:#3c322c}
      .m{fill:#8fb59d}
      .o{fill:#c46830}
      .y{fill:#d3a245}
      .n{fill:#253345}
      .b{fill:#4f3126}
      .c{fill:#ddd4c4}
      .k{fill:#8f6240}
      .t{fill:#73554a}
      .p{fill:#e7decf}
      .i{fill:#b6d0bf}
    </style>
  </defs>

  <rect class="t" x="56" y="10" width="2" height="8"/>
  <rect class="t" x="60" y="6" width="2" height="12"/>
  <rect class="t" x="64" y="10" width="2" height="8"/>

  <rect class="h" x="24" y="8" width="20" height="6"/>
  <rect class="h" x="20" y="12" width="28" height="6"/>
  <rect class="h" x="18" y="18" width="8" height="4"/>
  <rect class="h" x="42" y="18" width="8" height="4"/>

  <rect class="s" x="24" y="16" width="20" height="14"/>
  <rect class="s" x="22" y="22" width="24" height="8"/>
  <rect class="s" x="26" y="30" width="16" height="4"/>

  <rect class="g" x="24" y="22" width="6" height="4"/>
  <rect class="g" x="36" y="22" width="6" height="4"/>
  <rect class="g" x="30" y="22" width="6" height="2"/>
  <rect class="p" x="26" y="24" width="2" height="2"/>
  <rect class="p" x="38" y="24" width="2" height="2"/>
  <rect class="h" x="30" y="28" width="6" height="2"/>
  <rect class="h" x="28" y="30" width="10" height="2"/>

  <rect class="m" x="18" y="34" width="12" height="18"/>
  <rect class="m" x="34" y="34" width="14" height="18"/>
  <rect class="o" x="22" y="34" width="4" height="6"/>
  <rect class="o" x="38" y="34" width="4" height="6"/>
  <rect class="y" x="28" y="36" width="10" height="12"/>
  <rect class="i" x="28" y="34" width="10" height="2"/>

  <rect class="m" x="14" y="36" width="6" height="12"/>
  <rect class="m" x="46" y="38" width="6" height="8"/>
  <rect class="s" x="52" y="40" width="4" height="4"/>

  <rect class="c" x="56" y="34" width="12" height="12"/>
  <rect class="k" x="58" y="34" width="8" height="2"/>
  <rect class="c" x="68" y="38" width="2" height="6"/>

  <rect class="n" x="22" y="52" width="10" height="14"/>
  <rect class="n" x="34" y="52" width="10" height="14"/>
  <rect class="b" x="22" y="66" width="10" height="4"/>
  <rect class="b" x="34" y="66" width="10" height="4"/>

  <rect class="h" x="22" y="10" width="4" height="4"/>
  <rect class="h" x="40" y="10" width="6" height="4"/>
  <rect class="h" x="18" y="14" width="4" height="4"/>
  <rect class="h" x="46" y="14" width="4" height="4"/>
</svg>
